<svg xmlns="http://www.w3.org/2000/svg" width="920" height="220" viewBox="0 0 920 220" fill="none" role="img" aria-label="Nostr Boutique logo">
  <rect width="920" height="220" fill="transparent"/>

  <g stroke="#0f172a" stroke-width="5" stroke-linecap="round" stroke-linejoin="round">
    <path d="M38 136h118"/>
    <rect x="48" y="84" width="98" height="56" rx="8"/>
    <rect x="60" y="102" width="36" height="38"/>
    <path d="M104 140v-18c0-10 8-18 18-18s18 8 18 18v18"/>
    <path d="M48 84l14-22h70l14 22"/>
    <path d="M48 84c0 8 6 14 14 14s14-6 14-14"/>
    <path d="M76 84c0 8 6 14 14 14s14-6 14-14"/>
    <path d="M104 84c0 8 6 14 14 14s14-6 14-14"/>
    <path d="M132 84c0 8 6 14 14 14s14-6 14-14"/>
  </g>

  <text x="186" y="120" font-family="Fraunces, 'Times New Roman', serif" font-size="76" font-weight="700" fill="#0f172a">
    Nostr Boutique
  </text>
  <text x="192" y="168" font-family="Manrope, Arial, sans-serif" font-size="42" letter-spacing="1.2" fill="#0f172a">
    host your own self sovereign shop
  </text>
</svg>
